<svg xmlns="http://www.w3.org/2000/svg" viewBox="0 0 400 533" width="400" height="533">
  <defs>
    <linearGradient id="bg8" x1="0%" y1="0%" x2="100%" y2="100%">
      <stop offset="0%" style="stop-color:#F8F4EE"/>
      <stop offset="100%" style="stop-color:#EDE5D8"/>
    </linearGradient>
    <linearGradient id="skin8" x1="0%" y1="0%" x2="100%" y2="100%">
      <stop offset="0%" style="stop-color:#FDE8C8"/>
      <stop offset="100%" style="stop-color:#E8C090"/>
    </linearGradient>
    <linearGradient id="hair8" x1="0%" y1="0%" x2="100%" y2="100%">
      <stop offset="0%" style="stop-color:#D4A050"/>
      <stop offset="100%" style="stop-color:#A07030"/>
    </linearGradient>
    <linearGradient id="tooth8" x1="0%" y1="0%" x2="0%" y2="100%">
      <stop offset="0%" style="stop-color:#FFFFFF"/>
      <stop offset="100%" style="stop-color:#F5F3EE"/>
    </linearGradient>
    <radialGradient id="blush8" cx="50%" cy="50%" r="50%">
      <stop offset="0%" style="stop-color:#F0A898;stop-opacity:0.3"/>
      <stop offset="100%" style="stop-color:#F0A898;stop-opacity:0"/>
    </radialGradient>
    <radialGradient id="shine8" cx="30%" cy="20%" r="60%">
      <stop offset="0%" style="stop-color:#FFFFFF;stop-opacity:0.5"/>
      <stop offset="100%" style="stop-color:#FFFFFF;stop-opacity:0"/>
    </radialGradient>
  </defs>

  <rect width="400" height="533" fill="url(#bg8)"/>
  <rect width="400" height="533" fill="rgba(201,169,110,0.06)"/>

  <!-- Decorative vertical lines (editorial feel) -->
  <line x1="32" y1="0" x2="32" y2="533" stroke="#C9A96E" stroke-width="0.5" opacity="0.2"/>
  <line x1="368" y1="0" x2="368" y2="533" stroke="#C9A96E" stroke-width="0.5" opacity="0.2"/>

  <!-- Body -->
  <path d="M 20 533 Q 68 446 152 416 L 248 416 Q 332 446 380 533 Z" fill="#2A2218"/>
  <!-- Elegant blazer detail -->
  <path d="M 155 416 L 200 450 L 245 416" fill="#3A3028"/>
  <path d="M 200 450 L 200 533" stroke="#4A4038" stroke-width="2" opacity="0.4"/>

  <!-- Neck -->
  <rect x="175" y="346" width="50" height="80" rx="25" fill="url(#skin8)"/>

  <!-- Face (bright, light complexion) -->
  <ellipse cx="200" cy="238" rx="106" ry="122" fill="url(#skin8)"/>
  <ellipse cx="200" cy="238" rx="106" ry="122" fill="url(#shine8)"/>

  <!-- Jaw -->
  <path d="M 94 255 Q 88 305 112 346 Q 152 382 200 388 Q 248 382 288 346 Q 312 305 306 255" fill="url(#skin8)"/>

  <!-- Blush -->
  <ellipse cx="146" cy="275" rx="28" ry="18" fill="url(#blush8)"/>
  <ellipse cx="254" cy="275" rx="28" ry="18" fill="url(#blush8)"/>

  <!-- Hair (blonde, wavy) -->
  <ellipse cx="200" cy="144" rx="107" ry="70" fill="url(#hair8)"/>
  <!-- Wavy side locks -->
  <path d="M 93 188 Q 78 238 82 295 Q 86 330 98 360" stroke="#A07030" stroke-width="28" fill="none" stroke-linecap="round"/>
  <path d="M 307 188 Q 322 238 318 295 Q 314 330 302 360" stroke="#A07030" stroke-width="28" fill="none" stroke-linecap="round"/>
  <!-- Hair highlight streak -->
  <path d="M 130 152 Q 148 180 145 210" stroke="#E8C870" stroke-width="8" fill="none" stroke-linecap="round" opacity="0.6"/>
  <path d="M 200 120 Q 215 148 210 178" stroke="#E8C870" stroke-width="6" fill="none" stroke-linecap="round" opacity="0.5"/>

  <!-- Eyes (blue/light, striking) -->
  <ellipse cx="167" cy="226" rx="22" ry="12" fill="#1A3050"/>
  <ellipse cx="233" cy="226" rx="22" ry="12" fill="#1A3050"/>
  <ellipse cx="167" cy="226" rx="16" ry="8" fill="#2A4A70"/>
  <ellipse cx="233" cy="226" rx="16" ry="8" fill="#2A4A70"/>
  <circle cx="174" cy="221" r="4" fill="white" opacity="0.9"/>
  <circle cx="240" cy="221" r="4" fill="white" opacity="0.9"/>
  <circle cx="172" cy="226" r="1.5" fill="rgba(255,255,255,0.5)"/>
  <circle cx="238" cy="226" r="1.5" fill="rgba(255,255,255,0.5)"/>

  <!-- Lash lines -->
  <path d="M 144 218 Q 165 208 186 215" stroke="#0A0806" stroke-width="2.5" fill="none" stroke-linecap="round"/>
  <path d="M 214 215 Q 235 208 256 218" stroke="#0A0806" stroke-width="2.5" fill="none" stroke-linecap="round"/>
  <line x1="146" y1="218" x2="140" y2="210" stroke="#0A0806" stroke-width="1.3"/>
  <line x1="153" y1="214" x2="148" y2="206" stroke="#0A0806" stroke-width="1.3"/>
  <line x1="254" y1="218" x2="260" y2="210" stroke="#0A0806" stroke-width="1.3"/>
  <line x1="247" y1="214" x2="252" y2="206" stroke="#0A0806" stroke-width="1.3"/>

  <!-- Eyebrows (light, arched) -->
  <path d="M 144 207 Q 164 198 187 205" stroke="#8A6030" stroke-width="2.5" fill="none" stroke-linecap="round"/>
  <path d="M 213 205 Q 236 198 256 207" stroke="#8A6030" stroke-width="2.5" fill="none" stroke-linecap="round"/>

  <!-- Nose -->
  <path d="M 197 244 Q 192 264 197 274 Q 200 279 203 274 Q 208 264 203 244" fill="none" stroke="#C09868" stroke-width="1.5" opacity="0.45"/>

  <!-- Bright beaming smile (clareamento laser result) -->
  <path d="M 152 296 Q 200 328 248 296" fill="none"/>
  <!-- Lips (natural pink) -->
  <path d="M 152 296 Q 176 285 200 288 Q 224 285 248 296 Q 225 292 200 293 Q 175 292 152 296 Z" fill="#D08898"/>
  <path d="M 152 296 Q 176 322 200 330 Q 224 322 248 296 Q 224 318 200 321 Q 176 318 152 296 Z" fill="#C07888"/>
  <!-- Lip gloss shine -->
  <ellipse cx="200" cy="300" rx="28" ry="9" fill="rgba(255,255,255,0.3)"/>
  <ellipse cx="188" cy="298" rx="12" ry="4" fill="rgba(255,255,255,0.4)"/>

  <!-- Super white laser whitening teeth -->
  <path d="M 162 299 Q 200 312 238 299" fill="url(#tooth8)" opacity="0.98"/>
  <rect x="162" y="298" width="76" height="17" rx="2" fill="url(#tooth8)"/>
  <!-- Double shine (very white - laser result) -->
  <path d="M 168 299 Q 200 305 232 299" stroke="white" stroke-width="2.5" fill="none" opacity="0.8"/>
  <path d="M 172 303 Q 200 307 228 303" stroke="white" stroke-width="1" fill="none" opacity="0.4"/>
  <!-- Dividers -->
  <line x1="200" y1="298" x2="200" y2="313" stroke="#E0E0DC" stroke-width="0.8" opacity="0.5"/>
  <line x1="184" y1="299" x2="184" y2="313" stroke="#E0E0DC" stroke-width="0.7" opacity="0.4"/>
  <line x1="216" y1="299" x2="216" y2="313" stroke="#E0E0DC" stroke-width="0.7" opacity="0.4"/>
  <line x1="168" y1="301" x2="168" y2="312" stroke="#E0E0DC" stroke-width="0.7" opacity="0.35"/>
  <line x1="232" y1="301" x2="232" y2="312" stroke="#E0E0DC" stroke-width="0.7" opacity="0.35"/>

  <!-- Laser sparkles near smile (laser whitening effect) -->
  <line x1="268" y1="278" x2="280" y2="270" stroke="#C9A96E" stroke-width="1.5" opacity="0.9"/>
  <line x1="274" y1="284" x2="274" y2="264" stroke="#C9A96E" stroke-width="1.5" opacity="0.7"/>
  <line x1="262" y1="280" x2="282" y2="280" stroke="#C9A96E" stroke-width="1.5" opacity="0.7"/>
  <circle cx="274" cy="275" r="2.5" fill="#C9A96E" opacity="0.9"/>
  <!-- Second sparkle -->
  <line x1="120" y1="268" x2="110" y2="260" stroke="#C9A96E" stroke-width="1.2" opacity="0.7"/>
  <line x1="115" y1="274" x2="115" y2="254" stroke="#C9A96E" stroke-width="1.2" opacity="0.5"/>
  <line x1="108" y1="270" x2="128" y2="270" stroke="#C9A96E" stroke-width="1.2" opacity="0.5"/>
  <circle cx="115" cy="265" r="2" fill="#C9A96E" opacity="0.7"/>

  <!-- Pearl/gold necklace -->
  <path d="M 158 394 Q 200 412 242 394" fill="none" stroke="#C9A96E" stroke-width="1.5" opacity="0.7"/>
  <!-- Pearl drops -->
  <circle cx="180" cy="402" r="3" fill="#F0EAE0" opacity="0.9"/>
  <circle cx="200" cy="408" r="4" fill="#F0EAE0" opacity="0.95"/>
  <circle cx="220" cy="402" r="3" fill="#F0EAE0" opacity="0.9"/>

  <!-- Tag -->
  <rect x="0" y="460" width="400" height="73" fill="rgba(248,244,238,0.95)"/>
  <line x1="0" y1="460" x2="400" y2="460" stroke="#C9A96E" stroke-width="1" opacity="0.5"/>
  <text x="200" y="486" text-anchor="middle" font-family="Georgia, serif" font-size="10.5" fill="#B8975A" letter-spacing="3">CLAREAMENTO A LASER</text>
  <text x="200" y="508" text-anchor="middle" font-family="Arial, sans-serif" font-size="10" fill="#7B7368">Resultado final · Unic Clinic</text>

  <!-- Corner ornaments -->
  <path d="M 40 40 L 64 40 M 40 40 L 40 64" stroke="#C9A96E" stroke-width="1" fill="none" opacity="0.45"/>
  <path d="M 360 40 L 336 40 M 360 40 L 360 64" stroke="#C9A96E" stroke-width="1" fill="none" opacity="0.45"/>
</svg>
